<svg xmlns="http://www.w3.org/2000/svg" viewBox="0 0 470.41 121.61"><path fill="#fff" d="M27.3 93.23V80.86h31.85c5.08 0 8.93-1 11.56-3 2.7-2 4-4.92 4-8.8 0-2.98-1-5.6-3-7.83-2-2.24-5.8-4.77-11.3-7.6l-15.6-8c-5.7-2.9-10-6.25-12.7-10.05-2.8-3.8-4.12-8.13-4.12-13 0-6.98 2.55-12.5 7.63-16.53C40.4 2.02 47.33 0 56.2 0h19.6v12.3H52.1c-3.57 0-6.4.9-8.5 2.7-2.1 1.8-3.17 4.18-3.17 7.13 0 2.7.93 5.03 2.77 7 1.85 1.98 6.26 4.77 13.25 8.37l13.6 6.9c5.95 3.04 10.35 6.5 13.2 10.42 2.83 3.9 4.25 8.44 4.25 13.6 0 7.86-2.68 13.96-8.04 18.3-5.4 4.34-13 6.5-22.8 6.5H27.3m72.4-80.8h11.47v16.94h19.33v10.8h-19.33V67.5c0 5.14 1.24 8.9 3.74 11.25 2.5 2.37 6.5 3.55 12 3.55h3.7v10.93h-3.7c-9 0-15.8-1.98-20.3-5.93-4.5-3.95-6.7-9.9-6.7-17.84V12.43m42.7 80.8V29.36H153v9.44c1.94-3.73 4.63-6.43 8.06-8.1 3.43-1.68 8.05-2.5 13.87-2.5h3v11.06h-1.78c-7.83 0-13.5 1.86-17 5.6-3.5 3.73-5.24 9.8-5.24 18.22v30.15h-11.5m43.4 0V29.36h11.5v63.87zm-1.2-82.03c0-1.9.7-3.54 2.1-4.9 1.36-1.33 3-2 4.96-2 1.95 0 3.6.66 4.9 1.98 1.34 1.33 2 2.96 2 4.92 0 2-.66 3.67-2 5.04-1.3 1.37-2.95 2.05-4.9 2.05-1.9 0-3.55-.7-4.9-2.1-1.4-1.4-2.07-3.1-2.07-5M212 121.6V66.4c0-5.42.28-9.63.8-12.63.56-3 1.46-5.75 2.7-8.26 2.67-5.4 6.54-9.6 11.64-12.7 5.1-3 10.8-4.6 17.05-4.6 9.3 0 16.92 3.1 23 9.4 6 6.2 9 14.1 9 23.6 0 4.4-.78 8.5-2.28 12.5s-3.7 7.5-6.5 10.6c-2.9 3.2-6.3 5.7-10.3 7.5-4 1.77-8.2 2.65-12.5 2.65-3.2 0-6.2-.36-9.1-1.1-2.9-.8-5.7-1.9-8.3-3.3V77.6c2.6 2 5.23 3.47 7.93 4.43 2.7.95 5.42 1.43 8.2 1.43 6.12 0 11.15-2.1 15.1-6.3 3.95-4.22 5.93-9.63 5.93-16.22 0-6.43-1.9-11.7-5.8-15.82-3.85-4.13-8.8-6.2-14.83-6.2s-10.93 2.08-14.7 6.23c-3.8 4.14-5.67 9.56-5.67 16.24v60.2h-11.5m74.94 0V66.4c0-5.42.22-9.63.8-12.63.5-3 1.4-5.75 2.7-8.26 2.6-5.4 6.5-9.6 11.6-12.7 5.1-3 10.72-4.6 17-4.6 9.3 0 16.9 3.1 23 9.4 6 6.3 9 14.1 9 23.7 0 4.4-.75 8.5-2.25 12.5s-3.7 7.5-6.5 10.6c-2.9 3.2-6.3 5.7-10.3 7.5-4 1.76-8.2 2.6-12.5 2.6-3.2 0-6.2-.33-9.1-1.1-2.9-.7-5.6-1.8-8.2-3.3V77.6c2.6 2 5.2 3.47 7.9 4.43 2.7.95 5.4 1.43 8.2 1.43 6.1 0 11.13-2.1 15.1-6.3 3.93-4.22 5.9-9.63 5.9-16.22 0-6.43-1.97-11.7-5.8-15.82-3.9-4.13-8.8-6.2-14.88-6.2-6.06 0-10.96 2.08-14.7 6.23-3.8 4.14-5.7 9.56-5.7 16.24v60.2h-11.5m136.7-56.7c-1.6 9.1-5.3 16.3-11.06 21.6-5.78 5.2-12.8 7.9-21.1 7.9-2.8 0-5.6-.4-8.37-1.2-2.8-.8-5.4-1.9-7.8-3.4-5.1-3.2-9.1-7.2-11.9-12.3-2.9-5.07-4.3-10.6-4.3-16.6 0-4.46.8-8.67 2.4-12.66 1.6-4 4-7.6 7.08-10.8 3.03-3.2 6.54-5.6 10.5-7.25 3.9-1.67 8.03-2.5 12.4-2.5 6.44 0 12.22 1.7 17.32 5.1 5.1 3.43 9.2 8.4 12.4 14.9l-41.7 23.5-4.82-8.67 31.06-17.3c-1.9-2.14-4.05-3.75-6.44-4.83-2.4-1.1-5-1.6-7.9-1.6-5.8 0-10.6 2.2-14.5 6.4-3.9 4.3-5.9 9.6-5.9 15.9 0 6.3 1.9 11.5 5.9 15.8 3.9 4.3 8.7 6.5 14.4 6.5 5.4 0 9.9-1.8 13.6-5.3 3.6-3.6 5.9-8.5 6.8-14.7l11.7 1.8m11.6 28.27v-64h10.55v9.46c1.95-3.72 4.64-6.42 8.07-8.1 3.44-1.67 8.06-2.5 13.88-2.5h3v11h-1.77c-7.8 0-13.5 1.87-17 5.6-3.5 3.74-5.2 9.8-5.2 18.23V93.3h-11.5"/><path fill="#e72e4a" d="M7.53 15.14c2.12 0 3.9-.74 5.32-2.22C14.28 11.44 15 9.62 15 7.46c0-2.1-.72-3.88-2.15-5.32C11.42.7 9.65 0 7.53 0c-2.1 0-3.9.73-5.35 2.18C.73 3.64 0 5.4 0 7.46c0 2.12.74 3.92 2.22 5.42 1.48 1.5 3.25 2.26 5.3 2.26M13.7 32.4c0-3.44-2.78-6.22-6.2-6.22-3.44 0-6.23 2.78-6.23 6.2v60.85H13.7V32.4"/></svg>