<svg xmlns="http://www.w3.org/2000/svg" xmlns:xlink="http://www.w3.org/1999/xlink" viewBox="0 0 88 40">
    <path d="M.014 2.672L15 39.993l9.455-24.871 9.062 24.848 15.759-37.3H43.5l-9.754 23.466L24.566.92l-9.593 25.216L5.792 2.672H.014zM61.664 0L39.081 32.745h17.312v5h5.271v-5h3.746v-4.829h-3.746V0zm-13.4 27.915l8.131-11.753v11.754h-8.134zm26.887 9.828a22.879 22.879 0 0 0 6-.658 9.625 9.625 0 0 0 3.947-2.428 9.331 9.331 0 0 0 2.92-6.959 9.361 9.361 0 0 0-1.648-5.488 9.8 9.8 0 0 0-3.985-3.234 8.6 8.6 0 0 0 3.012-6.491A10.065 10.065 0 0 0 84.5 8.4a9.627 9.627 0 0 0-2.348-3.342 8.534 8.534 0 0 0-3.579-1.84 28.621 28.621 0 0 0-6.191-.546H67.1v35.073h8.053zM72.368 7.506h2.443A5.96 5.96 0 0 1 78.947 8.8a4.837 4.837 0 0 1 1.425 3.78 5.062 5.062 0 0 1-1.391 3.863 6.182 6.182 0 0 1-4.381 1.302h-2.232V7.506zm0 14.662h2.7q4.294 0 5.964 1.517a4.91 4.91 0 0 1 1.714 3.805 4.845 4.845 0 0 1-1.782 3.85q-1.693 1.4-5.3 1.4h-3.29V22.169z" fill="#fff" fill-rule="evenodd"></path>
</svg>